<svg xmlns="http://www.w3.org/2000/svg" viewBox="0 0 290 320">
  <g id="gövde">
    <circle cx="158.0" cy="92.8" r="11.91" fill="#fd4342"/>
    <circle cx="107.8" cy="93.1" r="11.85" fill="#fe4343"/>
    <circle cx="81.1" cy="93.5" r="11.36" fill="#ff4143"/>
    <circle cx="184.8" cy="93.5" r="11.80" fill="#fe4044"/>
    <circle cx="54.2" cy="94.0" r="11.33" fill="#fe4044"/>
    <circle cx="211.8" cy="94.0" r="11.74" fill="#fe4043"/>
    <circle cx="132.2" cy="94.4" r="8.42" fill="#fd4647"/>
    <circle cx="234.9" cy="100.9" r="7.88" fill="#fc4447"/>
    <circle cx="30.5" cy="101.0" r="7.99" fill="#fe4246"/>
    <circle cx="132.1" cy="117.4" r="9.70" fill="#fe4146"/>
    <circle cx="158.2" cy="120.3" r="12.78" fill="#fe3f43"/>
    <circle cx="106.9" cy="120.6" r="12.69" fill="#fe3e42"/>
    <circle cx="186.8" cy="121.9" r="12.75" fill="#fe3e42"/>
    <circle cx="78.3" cy="122.0" r="12.99" fill="#fe3e42"/>
    <circle cx="48.7" cy="122.4" r="13.18" fill="#fe3d41"/>
    <circle cx="215.2" cy="122.6" r="12.97" fill="#fd3e43"/>
    <circle cx="244.0" cy="123.9" r="11.41" fill="#fd4044"/>
    <circle cx="21.4" cy="124.0" r="11.19" fill="#fe3e44"/>
    <circle cx="133.0" cy="145.7" r="13.55" fill="#fe3e42"/>
    <circle cx="163.8" cy="149.9" r="14.94" fill="#fe3e40"/>
    <circle cx="102.0" cy="150.6" r="15.00" fill="#fe3e40"/>
    <circle cx="196.3" cy="151.2" r="13.84" fill="#fd3e41"/>
    <circle cx="70.2" cy="151.6" r="13.92" fill="#fe3f42"/>
    <circle cx="225.6" cy="153.2" r="12.50" fill="#fe3e42"/>
    <circle cx="40.5" cy="153.3" r="12.89" fill="#ff3c40"/>
    <circle cx="13.4" cy="154.6" r="11.27" fill="#fe4044"/>
    <circle cx="252.6" cy="155.1" r="10.94" fill="#fe4044"/>
    <circle cx="117.9" cy="181.3" r="15.69" fill="#fe423e"/>
    <circle cx="151.9" cy="182.0" r="14.86" fill="#fe413f"/>
    <circle cx="242.0" cy="182.1" r="12.04" fill="#fe4243"/>
    <circle cx="22.8" cy="182.3" r="11.08" fill="#fe4143"/>
    <circle cx="183.5" cy="182.4" r="13.70" fill="#fe4040"/>
    <circle cx="84.4" cy="182.4" r="14.28" fill="#ff413e"/>
    <circle cx="213.2" cy="182.5" r="12.92" fill="#fe4042"/>
    <circle cx="53.5" cy="182.8" r="13.66" fill="#fe3f40"/>
    <circle cx="231.9" cy="210.8" r="11.00" fill="#fd4542"/>
    <circle cx="200.1" cy="212.0" r="13.89" fill="#fe453f"/>
    <circle cx="33.5" cy="212.1" r="11.16" fill="#ff4041"/>
    <circle cx="168.3" cy="212.1" r="14.67" fill="#fe443d"/>
    <circle cx="133.0" cy="212.6" r="15.38" fill="#fd473d"/>
    <circle cx="65.7" cy="212.7" r="13.79" fill="#fe443f"/>
    <circle cx="98.6" cy="212.7" r="14.58" fill="#fe453d"/>
    <circle cx="217.6" cy="239.0" r="11.65" fill="#fd4941"/>
    <circle cx="47.6" cy="240.1" r="11.09" fill="#fe4540"/>
    <circle cx="185.8" cy="241.2" r="13.74" fill="#fe4a3b"/>
    <circle cx="79.5" cy="241.4" r="13.14" fill="#ff483d"/>
    <circle cx="150.8" cy="241.7" r="14.36" fill="#fe4c3b"/>
    <circle cx="114.2" cy="241.8" r="13.81" fill="#fe4c3b"/>
    <circle cx="200.8" cy="265.4" r="9.96" fill="#fe4e3f"/>
    <circle cx="64.5" cy="266.6" r="9.25" fill="#fe503e"/>
    <circle cx="96.8" cy="267.6" r="12.87" fill="#ff4f3a"/>
    <circle cx="168.1" cy="268.0" r="13.14" fill="#ff4e3a"/>
    <circle cx="133.6" cy="268.7" r="14.20" fill="#fe5139"/>
    <circle cx="84.8" cy="288.1" r="7.38" fill="#ff573f"/>
    <circle cx="181.0" cy="288.5" r="7.34" fill="#fe553e"/>
    <circle cx="112.0" cy="292.6" r="10.65" fill="#fe573a"/>
    <circle cx="153.1" cy="293.4" r="11.57" fill="#ff553a"/>
    <circle cx="132.8" cy="309.1" r="7.56" fill="#fe5b3e"/>
  </g>
  <g id="yaprak">
    <circle cx="133.1" cy="15.9" r="14.16" fill="#56c054"/>
    <circle cx="103.8" cy="40.2" r="13.23" fill="#56c253"/>
    <circle cx="64.4" cy="40.2" r="13.36" fill="#57c154"/>
    <circle cx="161.4" cy="40.3" r="13.41" fill="#56c253"/>
    <circle cx="199.6" cy="40.4" r="13.15" fill="#58c255"/>
    <circle cx="84.0" cy="59.5" r="10.45" fill="#56c253"/>
    <circle cx="181.3" cy="61.0" r="10.19" fill="#56c253"/>
    <circle cx="132.7" cy="65.1" r="16.61" fill="#59c355"/>
    <circle cx="159.4" cy="68.5" r="8.58" fill="#57c253"/>
    <circle cx="105.0" cy="69.3" r="7.90" fill="#55c353"/>
  </g>
</svg>
