<?xml version="1.0" encoding="utf-8" standalone="no"?>
<!DOCTYPE svg PUBLIC "-//W3C//DTD SVG 1.1//EN"
  "http://www.w3.org/Graphics/SVG/1.1/DTD/svg11.dtd">
<svg xmlns:xlink="http://www.w3.org/1999/xlink" width="629.00" height="110.17" viewBox="0 0 629.00 110.17" xmlns="http://www.w3.org/2000/svg" version="1.1">
 <metadata>
  <rdf:RDF xmlns:dc="http://purl.org/dc/elements/1.1/" xmlns:cc="http://creativecommons.org/ns#" xmlns:rdf="http://www.w3.org/1999/02/22-rdf-syntax-ns#">
   <cc:Work>
    <dc:type rdf:resource="http://purl.org/dc/dcmitype/StillImage"/>
    <dc:date>2026-07-22T21:10:32.479611</dc:date>
    <dc:format>image/svg+xml</dc:format>
    <dc:creator>
     <cc:Agent>
      <dc:title>Matplotlib v3.10.9, https://matplotlib.org/</dc:title>
     </cc:Agent>
    </dc:creator>
   </cc:Work>
  </rdf:RDF>
 </metadata>
 <defs>
  <style type="text/css">*{stroke-linejoin: round; stroke-linecap: butt}</style>
 </defs>
 <g id="figure_1">
  <g id="patch_1">
   <path d="M 0 79.325 
L 452.88 79.325 
L 452.88 0 
L 0 0 
L 0 79.325 
z
" style="fill: none"/>
  </g>
  <g id="axes_1">
   <g id="patch_2">
    <path d="M 23.844369 79.325 
Q 17.060682 79.325 11.769987 76.873387 
Q 6.493786 74.421774 3.420834 70.162097 
Q 0.362376 65.887097 -0 60.600806 
L 15.669157 60.600806 
Q 15.959058 63.435484 18.176802 65.212903 
Q 20.409041 66.975 23.655934 66.975 
Q 26.62742 66.975 28.250867 65.749194 
Q 29.874313 64.523387 29.874313 62.562097 
Q 29.874313 60.202419 27.555104 59.083871 
Q 25.235895 57.95 20.032169 56.570968 
Q 14.466067 55.207258 10.755333 53.690323 
Q 7.044598 52.158065 4.348517 48.879032 
Q 1.666932 45.6 1.666932 40.007258 
Q 1.666932 35.303226 4.116596 31.426613 
Q 6.580756 27.55 11.34963 25.297581 
Q 16.132999 23.045161 22.72825 23.045161 
Q 32.468928 23.045161 38.078516 28.147581 
Q 43.688103 33.234677 44.528816 41.677419 
L 29.874313 41.677419 
Q 29.497442 38.827419 27.497124 37.157258 
Q 25.511301 35.487097 22.264408 35.487097 
Q 19.481357 35.487097 17.988366 36.620968 
Q 16.50987 37.754839 16.50987 39.716129 
Q 16.50987 42.060484 18.872565 43.240323 
Q 21.235259 44.420161 26.250549 45.6 
Q 32.005087 47.162903 35.614356 48.679839 
Q 39.23812 50.196774 41.977686 53.583065 
Q 44.717252 56.969355 44.804222 62.654032 
Q 44.804222 67.465323 42.253092 71.25 
Q 39.701962 75.019355 34.918593 77.179839 
Q 30.149719 79.325 23.844369 79.325 
z
M 83.392952 64.324194 
L 83.392952 78.543548 
L 75.319205 78.543548 
Q 66.694646 78.543548 61.867792 74.084677 
Q 57.055433 69.625806 57.055433 59.512903 
L 57.055433 37.754839 
L 50.735588 37.754839 
L 50.735588 23.826613 
L 57.055433 23.826613 
L 57.055433 10.480645 
L 72.913026 10.480645 
L 72.913026 23.826613 
L 83.305982 23.826613 
L 83.305982 37.754839 
L 72.913026 37.754839 
L 72.913026 59.712097 
Q 72.913026 62.16371 74.029145 63.251613 
Q 75.145265 64.324194 77.73988 64.324194 
L 83.392952 64.324194 
z
M 108.069329 32.943548 
Q 110.85238 28.43871 115.026957 25.833871 
Q 119.201533 23.229032 124.303794 23.229032 
L 124.303794 40.987903 
L 119.940781 40.987903 
Q 114.012303 40.987903 111.040816 43.684677 
Q 108.069329 46.381452 108.069329 53.13871 
L 108.069329 78.543548 
L 92.211737 78.543548 
L 92.211737 23.826613 
L 108.069329 23.826613 
L 108.069329 32.943548 
z
M 128.756664 51.085484 
Q 128.756664 42.658065 131.771636 36.283871 
Q 134.786608 29.909677 139.975838 26.477419 
Q 145.179564 23.045161 151.586379 23.045161 
Q 157.051016 23.045161 161.182107 25.404839 
Q 165.313198 27.749194 167.530942 31.564516 
L 167.530942 23.826613 
L 183.40303 23.826613 
L 183.40303 78.543548 
L 167.530942 78.543548 
L 167.530942 70.790323 
Q 165.211733 74.620968 161.080642 76.980645 
Q 156.964045 79.325 151.484914 79.325 
Q 145.179564 79.325 139.975838 75.846774 
Q 134.786608 72.368548 131.771636 65.948387 
Q 128.756664 59.512903 128.756664 51.085484 
z
M 167.530942 51.177419 
Q 167.530942 44.910484 164.240564 41.279032 
Q 160.950186 37.647581 156.224797 37.647581 
Q 151.484914 37.647581 148.194536 41.233065 
Q 144.904158 44.803226 144.904158 51.085484 
Q 144.904158 57.367742 148.194536 61.045161 
Q 151.484914 64.722581 156.224797 64.722581 
Q 160.950186 64.722581 164.240564 61.091129 
Q 167.530942 57.459677 167.530942 51.177419 
z
M 269.207965 23.826613 
L 255.20574 78.543548 
L 237.666721 78.543548 
L 229.506003 43.041129 
L 221.06988 78.543548 
L 203.617831 78.543548 
L 189.528635 23.826613 
L 205.386228 23.826613 
L 212.720727 62.945161 
L 221.432257 23.826613 
L 238.232028 23.826613 
L 247.045023 62.76129 
L 254.278056 23.826613 
L 269.207965 23.826613 
z
" clip-path="url(#p913357c8da)" style="fill: #051c3f"/>
   </g>
   <g id="patch_3">
    <path d="M 303.885334 62.853226 
L 315.119004 23.826613 
L 331.99125 23.826613 
L 313.626013 78.543548 
L 294.057685 78.543548 
L 275.692448 23.826613 
L 292.66616 23.826613 
L 303.885334 62.853226 
z
M 387.469624 50.304032 
Q 387.469624 52.648387 387.194218 55.207258 
L 351.289961 55.207258 
Q 351.666833 60.309677 354.391903 63.006452 
Q 357.131469 65.703226 361.132105 65.703226 
Q 367.060584 65.703226 369.379793 60.401613 
L 386.266534 60.401613 
Q 384.961979 65.795161 381.570136 70.116129 
Q 378.192788 74.421774 373.090527 76.873387 
Q 367.988267 79.325 361.682917 79.325 
Q 354.073012 79.325 348.130039 75.892742 
Q 342.20156 72.460484 338.853202 66.08629 
Q 335.519339 59.712097 335.519339 51.177419 
Q 335.519339 42.658065 338.809717 36.283871 
Q 342.11459 29.909677 348.043068 26.477419 
Q 353.986042 23.045161 361.682917 23.045161 
Q 369.191357 23.045161 375.032865 26.385484 
Q 380.888868 29.710484 384.179246 35.885484 
Q 387.469624 42.060484 387.469624 50.304032 
z
M 371.23516 45.891129 
Q 371.23516 41.570161 368.452109 39.026613 
Q 365.669058 36.467742 361.494482 36.467742 
Q 357.508341 36.467742 354.768775 38.919355 
Q 352.029209 41.370968 351.391427 45.891129 
L 371.23516 45.891129 
z
M 411.682159 32.943548 
Q 414.46521 28.43871 418.639787 25.833871 
Q 422.814363 23.229032 427.916624 23.229032 
L 427.916624 40.987903 
L 423.553611 40.987903 
Q 417.625133 40.987903 414.653646 43.684677 
Q 411.682159 46.381452 411.682159 53.13871 
L 411.682159 78.543548 
L 395.824567 78.543548 
L 395.824567 23.826613 
L 411.682159 23.826613 
L 411.682159 32.943548 
z
M 443.501698 18.141935 
Q 439.327121 18.141935 436.674526 15.537097 
Q 434.036426 12.932258 434.036426 9.116935 
Q 434.036426 5.194355 436.674526 2.604839 
Q 439.327121 0 443.501698 0 
Q 447.589304 0 450.227405 2.604839 
Q 452.88 5.194355 452.88 9.116935 
Q 452.88 12.932258 450.227405 15.537097 
Q 447.589304 18.141935 443.501698 18.141935 
z
M 451.387009 23.826613 
L 451.387009 78.543548 
L 435.529416 78.543548 
L 435.529416 23.826613 
L 451.387009 23.826613 
z
" clip-path="url(#p913357c8da)" style="fill: #fd3d39"/>
   </g>
  </g>
 </g>
 <defs>
  <clipPath id="p913357c8da">
   <rect x="0" y="0" width="452.88" height="79.325"/>
  </clipPath>
 </defs>
</svg>
